<svg xmlns="http://www.w3.org/2000/svg" viewBox="0 0 640 360" font-family="Inter, Arial, sans-serif">
  <rect width="640" height="360" fill="white"/>
  <text x="320" y="28" text-anchor="middle" font-size="14" font-weight="600" fill="#1A2E4A">Private Equity Fund Return Dispersion</text>
  <text transform="translate(18, 170) rotate(-90)" text-anchor="middle" font-size="10" fill="#666">Net IRR</text>
  <!-- Gridlines -->
  <line x1="65" y1="55" x2="610" y2="55" stroke="#ddd" stroke-width="1" stroke-dasharray="4,3"/>
  <line x1="65" y1="113" x2="610" y2="113" stroke="#ddd" stroke-width="1" stroke-dasharray="4,3"/>
  <line x1="65" y1="170" x2="610" y2="170" stroke="#ddd" stroke-width="1" stroke-dasharray="4,3"/>
  <line x1="65" y1="228" x2="610" y2="228" stroke="#ddd" stroke-width="1" stroke-dasharray="4,3"/>
  <line x1="65" y1="285" x2="610" y2="285" stroke="#999" stroke-width="1"/>
  <!-- Axes -->
  <line x1="65" y1="50" x2="65" y2="289" stroke="#999" stroke-width="1"/>
  <!-- Y labels -->
  <text x="58" y="289" text-anchor="end" font-size="11" fill="#666">0%</text>
  <text x="58" y="232" text-anchor="end" font-size="11" fill="#666">10%</text>
  <text x="58" y="174" text-anchor="end" font-size="11" fill="#666">20%</text>
  <text x="58" y="117" text-anchor="end" font-size="11" fill="#666">30%</text>
  <text x="58" y="59" text-anchor="end" font-size="11" fill="#666">40%</text>
  <!-- X labels -->
  <text x="65" y="302" text-anchor="middle" font-size="10" fill="#666">2000</text>
  <text x="120" y="302" text-anchor="middle" font-size="10" fill="#666">2002</text>
  <text x="174" y="302" text-anchor="middle" font-size="10" fill="#666">2004</text>
  <text x="229" y="302" text-anchor="middle" font-size="10" fill="#666">2006</text>
  <text x="283" y="302" text-anchor="middle" font-size="10" fill="#666">2008</text>
  <text x="338" y="302" text-anchor="middle" font-size="10" fill="#666">2010</text>
  <text x="392" y="302" text-anchor="middle" font-size="10" fill="#666">2012</text>
  <text x="447" y="302" text-anchor="middle" font-size="10" fill="#666">2014</text>
  <text x="501" y="302" text-anchor="middle" font-size="10" fill="#666">2016</text>
  <text x="556" y="302" text-anchor="middle" font-size="10" fill="#666">2018</text>
  <text x="610" y="302" text-anchor="middle" font-size="10" fill="#666">2020</text>
  <!-- Best 50% line -->
  <polyline points="65,124 120,130 174,159 229,130 283,147 338,170 392,176 447,164 501,153 556,113 610,84" fill="none" stroke="#1A2E4A" stroke-width="2.5"/>
  <!-- Median line -->
  <polyline points="65,187 120,193 174,210 229,193 283,205 338,216 392,216 447,205 501,199 556,182 610,164" fill="none" stroke="#4C90B7" stroke-width="2.5"/>
  <!-- Bottom 50% line -->
  <polyline points="65,245 120,251 174,262 229,245 283,256 338,262 392,262 447,251 501,245 556,233 610,222" fill="none" stroke="#C5A55A" stroke-width="2.5"/>
  <!-- Legend -->
  <line x1="115" y1="325" x2="140" y2="325" stroke="#1A2E4A" stroke-width="2.5"/>
  <text x="147" y="329" font-size="11" fill="#555">Best 50%</text>
  <line x1="252" y1="325" x2="277" y2="325" stroke="#4C90B7" stroke-width="2.5"/>
  <text x="284" y="329" font-size="11" fill="#555">Median</text>
  <line x1="368" y1="325" x2="393" y2="325" stroke="#C5A55A" stroke-width="2.5"/>
  <text x="400" y="329" font-size="11" fill="#555">Bottom 50%</text>
  <!-- Source -->
  <text x="320" y="351" text-anchor="middle" font-size="10" fill="#999" font-style="italic">Source: Preqin Market Benchmarks</text>
</svg>
