<svg xmlns="http://www.w3.org/2000/svg" viewBox="0 0 700 400" font-family="Inter, Arial, sans-serif">
  <rect width="700" height="400" fill="white"/>
  <text x="350" y="25" text-anchor="middle" font-size="13" font-weight="600" fill="#1A2E4A">Figure 1 вҖ” Secondary Market Volume and Composition ($B)</text>
  <!-- Gridlines: Y range 0вҖ“250, chart y=55вҖ“280, scale=0.9px/$B -->
  <line x1="70" y1="55"  x2="680" y2="55"  stroke="#ddd" stroke-width="1" stroke-dasharray="4,3"/>
  <line x1="70" y1="100" x2="680" y2="100" stroke="#ddd" stroke-width="1" stroke-dasharray="4,3"/>
  <line x1="70" y1="145" x2="680" y2="145" stroke="#ddd" stroke-width="1" stroke-dasharray="4,3"/>
  <line x1="70" y1="190" x2="680" y2="190" stroke="#ddd" stroke-width="1" stroke-dasharray="4,3"/>
  <line x1="70" y1="235" x2="680" y2="235" stroke="#ddd" stroke-width="1" stroke-dasharray="4,3"/>
  <line x1="70" y1="280" x2="680" y2="280" stroke="#999" stroke-width="1"/>
  <!-- Y axis -->
  <line x1="70" y1="50" x2="70" y2="284" stroke="#999" stroke-width="1"/>
  <!-- Y labels (0,50,100,150,200,250) -->
  <text x="63" y="284" text-anchor="end" font-size="9" fill="#666">$0</text>
  <text x="63" y="239" text-anchor="end" font-size="9" fill="#666">$50</text>
  <text x="63" y="194" text-anchor="end" font-size="9" fill="#666">$100</text>
  <text x="63" y="149" text-anchor="end" font-size="9" fill="#666">$150</text>
  <text x="63" y="104" text-anchor="end" font-size="9" fill="#666">$200</text>
  <text x="63" y="59"  text-anchor="end" font-size="9" fill="#666">$250</text>

  <!--
    13 bars (2013вҖ“2025), bar width=34, group width=47
    Centers: 94,141,188,235,282,329,376,423,470,517,564,611,658
    Bar x = centerвҲ’17

    Data [LP-led, GP-led] $B:
    2013:[22,4]  2014:[38,9]  2015:[32,10] 2016:[28,9]
    2017:[38,16] 2018:[45,27] 2019:[46,34] 2020:[30,30]
    2021:[65,69] 2022:[50,53] 2023:[54,60] 2024:[68,92] 2025:[85,125]

    Scale: 0.9 px/$B.  LP bar: y=280вҲ’LPГ—0.9, h=LPГ—0.9
    GP bar:  y=280вҲ’(LP+GP)Г—0.9, h=GPГ—0.9
  -->

  <!-- в”Җв”Җ 2013: LP=22(h=20,y=260) GP=4(h=4,y=256) total=$26 -->
  <rect x="77" y="260" width="34" height="20" fill="#4C90B7"/>
  <rect x="77" y="256" width="34" height="4"  fill="#1A2E4A"/>
  <text x="94" y="251" text-anchor="middle" font-size="7.5" fill="#555">$26</text>
  <!-- в”Җв”Җ 2014: LP=38(h=34,y=246) GP=9(h=8,y=238) total=$47 -->
  <rect x="124" y="246" width="34" height="34" fill="#4C90B7"/>
  <rect x="124" y="238" width="34" height="8"  fill="#1A2E4A"/>
  <text x="141" y="233" text-anchor="middle" font-size="7.5" fill="#555">$47</text>
  <!-- в”Җв”Җ 2015: LP=32(h=29,y=251) GP=10(h=9,y=242) total=$42 -->
  <rect x="171" y="251" width="34" height="29" fill="#4C90B7"/>
  <rect x="171" y="242" width="34" height="9"  fill="#1A2E4A"/>
  <text x="188" y="237" text-anchor="middle" font-size="7.5" fill="#555">$42</text>
  <!-- в”Җв”Җ 2016: LP=28(h=25,y=255) GP=9(h=8,y=247) total=$37 -->
  <rect x="218" y="255" width="34" height="25" fill="#4C90B7"/>
  <rect x="218" y="247" width="34" height="8"  fill="#1A2E4A"/>
  <text x="235" y="242" text-anchor="middle" font-size="7.5" fill="#555">$37</text>
  <!-- в”Җв”Җ 2017: LP=38(h=34,y=246) GP=16(h=14,y=232) total=$54 -->
  <rect x="265" y="246" width="34" height="34" fill="#4C90B7"/>
  <rect x="265" y="232" width="34" height="14" fill="#1A2E4A"/>
  <text x="282" y="227" text-anchor="middle" font-size="7.5" fill="#555">$54</text>
  <!-- в”Җв”Җ 2018: LP=45(h=41,y=239) GP=27(h=24,y=215) total=$72 -->
  <rect x="312" y="239" width="34" height="41" fill="#4C90B7"/>
  <rect x="312" y="215" width="34" height="24" fill="#1A2E4A"/>
  <text x="329" y="210" text-anchor="middle" font-size="7.5" fill="#555">$72</text>
  <!-- в”Җв”Җ 2019: LP=46(h=41,y=239) GP=34(h=31,y=208) total=$80 -->
  <rect x="359" y="239" width="34" height="41" fill="#4C90B7"/>
  <rect x="359" y="208" width="34" height="31" fill="#1A2E4A"/>
  <text x="376" y="203" text-anchor="middle" font-size="7.5" fill="#555">$80</text>
  <!-- в”Җв”Җ 2020: LP=30(h=27,y=253) GP=30(h=27,y=226) total=$60 -->
  <rect x="406" y="253" width="34" height="27" fill="#4C90B7"/>
  <rect x="406" y="226" width="34" height="27" fill="#1A2E4A"/>
  <text x="423" y="221" text-anchor="middle" font-size="7.5" fill="#555">$60</text>
  <!-- в”Җв”Җ 2021: LP=65(h=59,y=221) GP=69(h=62,y=159) total=$134 -->
  <rect x="453" y="221" width="34" height="59" fill="#4C90B7"/>
  <rect x="453" y="159" width="34" height="62" fill="#1A2E4A"/>
  <text x="470" y="154" text-anchor="middle" font-size="7.5" fill="#555">$134</text>
  <!-- в”Җв”Җ 2022: LP=50(h=45,y=235) GP=53(h=48,y=187) total=$103 -->
  <rect x="500" y="235" width="34" height="45" fill="#4C90B7"/>
  <rect x="500" y="187" width="34" height="48" fill="#1A2E4A"/>
  <text x="517" y="182" text-anchor="middle" font-size="7.5" fill="#555">$103</text>
  <!-- в”Җв”Җ 2023: LP=54(h=49,y=231) GP=60(h=54,y=177) total=$114 -->
  <rect x="547" y="231" width="34" height="49" fill="#4C90B7"/>
  <rect x="547" y="177" width="34" height="54" fill="#1A2E4A"/>
  <text x="564" y="172" text-anchor="middle" font-size="7.5" fill="#555">$114</text>
  <!-- в”Җв”Җ 2024: LP=68(h=61,y=219) GP=92(h=83,y=136) total=$160 -->
  <rect x="594" y="219" width="34" height="61" fill="#4C90B7"/>
  <rect x="594" y="136" width="34" height="83" fill="#1A2E4A"/>
  <text x="611" y="131" text-anchor="middle" font-size="7.5" fill="#555">$160</text>
  <!-- в”Җв”Җ 2025 (expected, lighter): LP=85(h=77,y=203) GP=125(h=113,y=90) total=$210 -->
  <rect x="641" y="203" width="34" height="77" fill="#4C90B7" opacity="0.55"/>
  <rect x="641" y="90"  width="34" height="113" fill="#1A2E4A" opacity="0.55"/>
  <rect x="641" y="90"  width="34" height="190" fill="none" stroke="#888" stroke-width="1" stroke-dasharray="4,3"/>
  <text x="658" y="85" text-anchor="middle" font-size="7.5" fill="#888">$210E</text>

  <!-- X labels -->
  <text x="94"  y="294" text-anchor="middle" font-size="9" fill="#555">2013</text>
  <text x="141" y="294" text-anchor="middle" font-size="9" fill="#555">2014</text>
  <text x="188" y="294" text-anchor="middle" font-size="9" fill="#555">2015</text>
  <text x="235" y="294" text-anchor="middle" font-size="9" fill="#555">2016</text>
  <text x="282" y="294" text-anchor="middle" font-size="9" fill="#555">2017</text>
  <text x="329" y="294" text-anchor="middle" font-size="9" fill="#555">2018</text>
  <text x="376" y="294" text-anchor="middle" font-size="9" fill="#555">2019</text>
  <text x="423" y="294" text-anchor="middle" font-size="9" fill="#555">2020</text>
  <text x="470" y="294" text-anchor="middle" font-size="9" fill="#555">2021</text>
  <text x="517" y="294" text-anchor="middle" font-size="9" fill="#555">2022</text>
  <text x="564" y="294" text-anchor="middle" font-size="9" fill="#555">2023</text>
  <text x="611" y="294" text-anchor="middle" font-size="9" fill="#555">2024</text>
  <text x="658" y="294" text-anchor="middle" font-size="9" fill="#888">2025E</text>

  <!-- Legend -->
  <rect x="130" y="318" width="12" height="12" fill="#1A2E4A"/>
  <text x="146" y="329" font-size="11" fill="#555">GP-led transactions</text>
  <rect x="320" y="318" width="12" height="12" fill="#4C90B7"/>
  <text x="336" y="329" font-size="11" fill="#555">LP-led transactions</text>
  <rect x="490" y="318" width="12" height="12" fill="#888" opacity="0.55"/>
  <text x="506" y="329" font-size="11" fill="#888">2025 Expected</text>

  <!-- Source -->
  <text x="350" y="358" text-anchor="middle" font-size="9" fill="#999" font-style="italic">Source: Evercore, Secondary Market Review (2025).</text>
</svg>
